<?xml version="1.0" encoding="UTF-8" standalone="no"?>
<!-- Created with Inkscape (http://www.inkscape.org/) -->

<svg
   width="7.9739642mm"
   height="7.9739966mm"
   viewBox="0 0 7.9739642 7.9739966"
   version="1.1"
   id="svg1"
   xml:space="preserve"
   inkscape:version="1.3 (0e150ed6c4, 2023-07-21)"
   sodipodi:docname="icon.svg"
   xmlns:inkscape="http://www.inkscape.org/namespaces/inkscape"
   xmlns:sodipodi="http://sodipodi.sourceforge.net/DTD/sodipodi-0.dtd"
   xmlns="http://www.w3.org/2000/svg"
   xmlns:svg="http://www.w3.org/2000/svg"><sodipodi:namedview
     id="namedview1"
     pagecolor="#505050"
     bordercolor="#ffffff"
     borderopacity="1"
     inkscape:showpageshadow="0"
     inkscape:pageopacity="0"
     inkscape:pagecheckerboard="1"
     inkscape:deskcolor="#505050"
     inkscape:document-units="mm"
     inkscape:zoom="8.2747365"
     inkscape:cx="10.936904"
     inkscape:cy="20.725735"
     inkscape:window-width="1920"
     inkscape:window-height="1017"
     inkscape:window-x="-8"
     inkscape:window-y="-8"
     inkscape:window-maximized="1"
     inkscape:current-layer="layer1" /><defs
     id="defs1" /><g
     inkscape:label="Layer 1"
     inkscape:groupmode="layer"
     id="layer1"
     transform="translate(-281.88999,-132.21338)"><g
       id="g7"
       transform="matrix(0.07637217,0,0,0.07637217,287.71487,135.24386)"
       style="fill:#008080"><path
         id="path3"
         style="fill:#008080;stroke-width:0.2;paint-order:stroke fill markers"
         d="m -42.697945,15.170156 a 15.987417,15.987417 0 0 0 -15.987655,15.987655 15.987417,15.987417 0 0 0 15.987655,15.987138 15.987417,15.987417 0 0 0 15.987138,-15.987138 15.987417,15.987417 0 0 0 -0.0052,-0.210323 c 0.0018,-0.03477 0.0052,-0.06914 0.0052,-0.104386 V 17.120425 c 0,-1.080338 -0.869414,-1.950269 -1.949752,-1.950269 h -13.782105 c -0.02861,0 -0.05644,0.0029 -0.08475,0.0041 a 15.987417,15.987417 0 0 0 -0.170531,-0.0041 z" /><path
         id="path4"
         style="fill:#008080;stroke-width:0.2;paint-order:stroke fill markers"
         d="m -5.4322266,-22.096326 a 15.987417,15.987417 0 0 0 -15.9871374,15.9871382 15.987417,15.987417 0 0 0 0.0052,0.2103231 c -0.0018,0.03477 -0.0052,0.06914 -0.0052,0.1043863 V 7.9281982 c 0,1.080336 0.869415,1.9502686 1.949751,1.9502686 h 13.7821049 c 0.02861,0 0.056439,-0.00293 0.084749,-0.00413 a 15.987417,15.987417 0 0 0 0.1705322,0.00413 15.987417,15.987417 0 0 0 15.9876549,-15.9876546 15.987417,15.987417 0 0 0 -0.04134,-0.5777425 c 0.02725,-0.1348757 0.04134,-0.2744018 0.04134,-0.4175456 V -20.013765 c 0,-1.153802 -0.9287591,-2.082561 -2.0825605,-2.082561 H -4.9490519 c -0.085206,0 -0.1686787,0.0067 -0.2511475,0.01654 a 15.987417,15.987417 0 0 0 -0.2320272,-0.01654 z m 0,3.836975 A 12.150437,12.150437 0 0 1 6.718453,-6.1091878 12.150437,12.150437 0 0 1 -5.4322266,6.0414917 12.150437,12.150437 0 0 1 -17.582389,-6.1091878 12.150437,12.150437 0 0 1 -5.4322266,-18.259351 Z" /><path
         id="path5"
         style="fill:#008080;stroke-width:0.2;paint-order:stroke fill markers"
         d="m -26.710807,-6.108649 a 15.987417,15.987417 0 0 0 -15.987655,-15.987655 15.987417,15.987417 0 0 0 -15.987138,15.987655 15.987417,15.987417 0 0 0 15.987138,15.987138 15.987417,15.987417 0 0 0 0.210323,-0.0052 c 0.03477,0.0018 0.06914,0.0052 0.104386,0.0052 h 13.722677 c 1.080338,0 1.950269,-0.869414 1.950269,-1.949752 V -5.853368 c 0,-0.02861 -0.0029,-0.05644 -0.0041,-0.08475 a 15.987417,15.987417 0 0 0 0.0041,-0.170531 z" /><path
         id="path6"
         style="fill:#008080;stroke-width:0.2;paint-order:stroke fill markers"
         d="M -21.41914,31.157294 A 15.987417,15.987417 0 0 0 -5.4314853,47.144949 15.987417,15.987417 0 0 0 10.555653,31.157294 15.987417,15.987417 0 0 0 -5.4314853,15.170156 a 15.987417,15.987417 0 0 0 -0.210323,0.0052 c -0.03477,-0.0018 -0.06914,-0.0052 -0.104386,-0.0052 H -19.468871 c -1.080338,0 -1.950269,0.869414 -1.950269,1.949752 v 13.782105 c 0,0.02861 0.0029,0.05644 0.0041,0.08475 a 15.987417,15.987417 0 0 0 -0.0041,0.170531 z" /></g></g></svg>
